<mxfile host="Electron" modified="2023-11-02T17:05:53.563Z" agent="Mozilla/5.0 (Windows NT 10.0; Win64; x64) AppleWebKit/537.36 (KHTML, like Gecko) draw.io/22.0.3 Chrome/114.0.5735.289 Electron/25.8.4 Safari/537.36" etag="C_WX4K136nbTZqD6_gZR" version="22.0.3" type="device">
  <diagram name="Page-1" id="97916047-d0de-89f5-080d-49f4d83e522f">
    <mxGraphModel dx="1506" dy="911" grid="1" gridSize="10" guides="1" tooltips="1" connect="1" arrows="1" fold="1" page="1" pageScale="1.5" pageWidth="1169" pageHeight="827" background="none" math="0" shadow="0">
      <root>
        <mxCell id="0" />
        <mxCell id="1" parent="0" />
        <mxCell id="s2ZFkgCrrLTkxsjDdLg7-135" value="" style="endArrow=none;html=1;rounded=0;entryX=0.5;entryY=1;entryDx=0;entryDy=0;exitX=0.5;exitY=0;exitDx=0;exitDy=0;strokeWidth=4;" edge="1" parent="1" source="s2ZFkgCrrLTkxsjDdLg7-129" target="s2ZFkgCrrLTkxsjDdLg7-122">
          <mxGeometry width="50" height="50" relative="1" as="geometry">
            <mxPoint x="980" y="780" as="sourcePoint" />
            <mxPoint x="1030" y="730" as="targetPoint" />
          </mxGeometry>
        </mxCell>
        <mxCell id="s2ZFkgCrrLTkxsjDdLg7-108" value="" style="endArrow=none;html=1;rounded=0;entryX=0.5;entryY=1;entryDx=0;entryDy=0;exitX=0.5;exitY=0;exitDx=0;exitDy=0;strokeWidth=4;" edge="1" parent="1" source="s2ZFkgCrrLTkxsjDdLg7-103" target="23">
          <mxGeometry width="50" height="50" relative="1" as="geometry">
            <mxPoint x="762" y="965" as="sourcePoint" />
            <mxPoint x="812" y="915" as="targetPoint" />
          </mxGeometry>
        </mxCell>
        <mxCell id="3" value="Cơ sở dữ liệu" style="rounded=1;fillColor=#10739E;strokeColor=none;shadow=1;gradientColor=none;fontStyle=1;fontColor=#FFFFFF;fontSize=20;" parent="1" vertex="1">
          <mxGeometry x="680" y="480" width="220" height="40" as="geometry" />
        </mxCell>
        <mxCell id="8" value="Nhập" style="rounded=1;fillColor=#10739E;strokeColor=none;shadow=1;gradientColor=none;fontStyle=1;fontColor=#FFFFFF;fontSize=20;" parent="1" vertex="1">
          <mxGeometry x="383" y="600" width="122" height="40" as="geometry" />
        </mxCell>
        <mxCell id="13" value="Sửa" style="rounded=1;fillColor=#10739E;strokeColor=none;shadow=1;gradientColor=none;fontStyle=1;fontColor=#FFFFFF;fontSize=20;" parent="1" vertex="1">
          <mxGeometry x="610" y="600" width="120" height="40" as="geometry" />
        </mxCell>
        <mxCell id="14" value="Nhập&#xa;ngày giao dịch" style="rounded=1;fillColor=#10739E;strokeColor=none;shadow=1;gradientColor=none;fontStyle=1;fontColor=#FFFFFF;fontSize=20;" parent="1" vertex="1">
          <mxGeometry x="384" y="680" width="168" height="60" as="geometry" />
        </mxCell>
        <mxCell id="15" value="Nhập&#xa;số tiền" style="rounded=1;fillColor=#10739E;strokeColor=none;shadow=1;gradientColor=none;fontStyle=1;fontColor=#FFFFFF;fontSize=20;" parent="1" vertex="1">
          <mxGeometry x="383" y="770" width="170" height="60" as="geometry" />
        </mxCell>
        <mxCell id="16" value="Gắn thẻ&#xa;danh mục" style="rounded=1;fillColor=#10739E;strokeColor=none;shadow=1;gradientColor=none;fontStyle=1;fontColor=#FFFFFF;fontSize=20;" parent="1" vertex="1">
          <mxGeometry x="384" y="860" width="172" height="60" as="geometry" />
        </mxCell>
        <mxCell id="18" value="Thêm" style="rounded=1;fillColor=#10739E;strokeColor=none;shadow=1;gradientColor=none;fontStyle=1;fontColor=#FFFFFF;fontSize=20;" parent="1" vertex="1">
          <mxGeometry x="762" y="595" width="120" height="40" as="geometry" />
        </mxCell>
        <mxCell id="23" value="Xoá" style="rounded=1;fillColor=#10739E;strokeColor=none;shadow=1;gradientColor=none;fontStyle=1;fontColor=#FFFFFF;fontSize=20;" parent="1" vertex="1">
          <mxGeometry x="932" y="595" width="120" height="40" as="geometry" />
        </mxCell>
        <mxCell id="34" value="" style="edgeStyle=elbowEdgeStyle;elbow=vertical;strokeWidth=4;endArrow=none;endFill=0;fontStyle=1;strokeColor=#23445D;fontSize=20;" parent="1" source="3" target="8" edge="1">
          <mxGeometry x="22" y="165.5" width="100" height="100" as="geometry">
            <mxPoint x="22" y="265.5" as="sourcePoint" />
            <mxPoint x="122" y="165.5" as="targetPoint" />
            <Array as="points">
              <mxPoint x="552" y="555.5" />
            </Array>
          </mxGeometry>
        </mxCell>
        <mxCell id="37" value="" style="edgeStyle=elbowEdgeStyle;elbow=vertical;strokeWidth=4;endArrow=none;endFill=0;fontStyle=1;strokeColor=#23445D;entryX=0.5;entryY=0;entryDx=0;entryDy=0;fontSize=20;" parent="1" source="3" target="23" edge="1">
          <mxGeometry x="22" y="165.5" width="100" height="100" as="geometry">
            <mxPoint x="22" y="265.5" as="sourcePoint" />
            <mxPoint x="1192" y="620" as="targetPoint" />
            <Array as="points">
              <mxPoint x="972" y="555.5" />
            </Array>
          </mxGeometry>
        </mxCell>
        <mxCell id="54" value="" style="edgeStyle=elbowEdgeStyle;elbow=vertical;strokeWidth=4;endArrow=none;endFill=0;fontStyle=1;strokeColor=#23445D;entryX=0.5;entryY=0;entryDx=0;entryDy=0;fontSize=20;" parent="1" source="3" target="13" edge="1">
          <mxGeometry x="22" y="165.5" width="100" height="100" as="geometry">
            <mxPoint x="22" y="265.5" as="sourcePoint" />
            <mxPoint x="122" y="165.5" as="targetPoint" />
            <Array as="points">
              <mxPoint x="652" y="555.5" />
            </Array>
          </mxGeometry>
        </mxCell>
        <mxCell id="55" value="" style="edgeStyle=elbowEdgeStyle;elbow=vertical;strokeWidth=4;endArrow=none;endFill=0;fontStyle=1;strokeColor=#23445D;entryX=0.5;entryY=0;entryDx=0;entryDy=0;fontSize=20;exitX=0.5;exitY=1;exitDx=0;exitDy=0;" parent="1" source="3" target="18" edge="1">
          <mxGeometry x="22" y="165.5" width="100" height="100" as="geometry">
            <mxPoint x="22" y="265.5" as="sourcePoint" />
            <mxPoint x="122" y="165.5" as="targetPoint" />
            <Array as="points" />
          </mxGeometry>
        </mxCell>
        <mxCell id="s2ZFkgCrrLTkxsjDdLg7-64" value="Xuất" style="rounded=1;fillColor=#10739E;strokeColor=none;shadow=1;gradientColor=none;fontStyle=1;fontColor=#FFFFFF;fontSize=20;" vertex="1" parent="1">
          <mxGeometry x="1092" y="595" width="130" height="37.5" as="geometry" />
        </mxCell>
        <mxCell id="s2ZFkgCrrLTkxsjDdLg7-73" value="" style="edgeStyle=elbowEdgeStyle;elbow=vertical;strokeWidth=4;endArrow=none;endFill=0;fontStyle=1;strokeColor=#23445D;exitX=0.5;exitY=1;exitDx=0;exitDy=0;entryX=0.5;entryY=0;entryDx=0;entryDy=0;fontSize=20;" edge="1" parent="1" source="3" target="s2ZFkgCrrLTkxsjDdLg7-64">
          <mxGeometry x="22" y="165.5" width="100" height="100" as="geometry">
            <mxPoint x="1020" y="406" as="sourcePoint" />
            <mxPoint x="1440" y="616" as="targetPoint" />
            <Array as="points">
              <mxPoint x="1220" y="555.5" />
            </Array>
          </mxGeometry>
        </mxCell>
        <mxCell id="s2ZFkgCrrLTkxsjDdLg7-75" value="Nhập ghi chú" style="rounded=1;fillColor=#10739E;strokeColor=none;shadow=1;gradientColor=none;fontStyle=1;fontColor=#FFFFFF;fontSize=20;" vertex="1" parent="1">
          <mxGeometry x="384" y="950" width="172" height="60" as="geometry" />
        </mxCell>
        <mxCell id="s2ZFkgCrrLTkxsjDdLg7-78" value="" style="endArrow=none;html=1;rounded=1;exitX=0;exitY=0.5;exitDx=0;exitDy=0;entryX=0;entryY=0.5;entryDx=0;entryDy=0;fontStyle=1;fontSize=20;fontColor=default;strokeWidth=4;endFill=0;" edge="1" parent="1" source="8" target="14">
          <mxGeometry width="50" height="50" relative="1" as="geometry">
            <mxPoint x="543" y="760" as="sourcePoint" />
            <mxPoint x="593" y="710" as="targetPoint" />
            <Array as="points">
              <mxPoint x="353" y="620" />
              <mxPoint x="353" y="706" />
            </Array>
          </mxGeometry>
        </mxCell>
        <mxCell id="s2ZFkgCrrLTkxsjDdLg7-79" value="" style="endArrow=none;html=1;rounded=1;entryX=0;entryY=0.5;entryDx=0;entryDy=0;fontStyle=1;fontSize=20;fontColor=default;strokeWidth=4;endFill=0;" edge="1" parent="1" target="15">
          <mxGeometry width="50" height="50" relative="1" as="geometry">
            <mxPoint x="385" y="620.5" as="sourcePoint" />
            <mxPoint x="385" y="706" as="targetPoint" />
            <Array as="points">
              <mxPoint x="353" y="620" />
              <mxPoint x="353" y="796" />
            </Array>
          </mxGeometry>
        </mxCell>
        <mxCell id="s2ZFkgCrrLTkxsjDdLg7-80" value="" style="endArrow=none;html=1;rounded=1;entryX=0;entryY=0.5;entryDx=0;entryDy=0;fontStyle=1;fontSize=20;fontColor=default;strokeWidth=4;endFill=0;" edge="1" parent="1" target="16">
          <mxGeometry width="50" height="50" relative="1" as="geometry">
            <mxPoint x="383" y="620.5" as="sourcePoint" />
            <mxPoint x="381" y="800" as="targetPoint" />
            <Array as="points">
              <mxPoint x="351" y="620" />
              <mxPoint x="351" y="890" />
            </Array>
          </mxGeometry>
        </mxCell>
        <mxCell id="s2ZFkgCrrLTkxsjDdLg7-81" value="" style="endArrow=none;html=1;rounded=1;entryX=0;entryY=0.5;entryDx=0;entryDy=0;fontStyle=1;fontSize=20;fontColor=default;strokeWidth=4;endFill=0;" edge="1" parent="1" target="s2ZFkgCrrLTkxsjDdLg7-75">
          <mxGeometry width="50" height="50" relative="1" as="geometry">
            <mxPoint x="382" y="620.5" as="sourcePoint" />
            <mxPoint x="383" y="890" as="targetPoint" />
            <Array as="points">
              <mxPoint x="350" y="620" />
              <mxPoint x="353" y="980" />
            </Array>
          </mxGeometry>
        </mxCell>
        <mxCell id="s2ZFkgCrrLTkxsjDdLg7-91" value="Sửa&#xa;ngày giao dịch" style="rounded=1;fillColor=#10739E;strokeColor=none;shadow=1;gradientColor=none;fontStyle=1;fontColor=#FFFFFF;fontSize=20;" vertex="1" parent="1">
          <mxGeometry x="604" y="680" width="168" height="60" as="geometry" />
        </mxCell>
        <mxCell id="s2ZFkgCrrLTkxsjDdLg7-92" value="Sửa&#xa;số tiền" style="rounded=1;fillColor=#10739E;strokeColor=none;shadow=1;gradientColor=none;fontStyle=1;fontColor=#FFFFFF;fontSize=20;" vertex="1" parent="1">
          <mxGeometry x="603" y="770" width="170" height="60" as="geometry" />
        </mxCell>
        <mxCell id="s2ZFkgCrrLTkxsjDdLg7-93" value="Sửa gắn thẻ&#xa;danh mục" style="rounded=1;fillColor=#10739E;strokeColor=none;shadow=1;gradientColor=none;fontStyle=1;fontColor=#FFFFFF;fontSize=20;" vertex="1" parent="1">
          <mxGeometry x="604" y="860" width="172" height="60" as="geometry" />
        </mxCell>
        <mxCell id="s2ZFkgCrrLTkxsjDdLg7-94" value="Sửa ghi chú" style="rounded=1;fillColor=#10739E;strokeColor=none;shadow=1;gradientColor=none;fontStyle=1;fontColor=#FFFFFF;fontSize=20;" vertex="1" parent="1">
          <mxGeometry x="604" y="950" width="172" height="60" as="geometry" />
        </mxCell>
        <mxCell id="s2ZFkgCrrLTkxsjDdLg7-95" value="" style="endArrow=none;html=1;rounded=1;exitX=0;exitY=0.5;exitDx=0;exitDy=0;entryX=0;entryY=0.5;entryDx=0;entryDy=0;fontStyle=1;fontSize=20;fontColor=default;strokeWidth=4;endFill=0;" edge="1" source="13" target="s2ZFkgCrrLTkxsjDdLg7-91" parent="1">
          <mxGeometry width="50" height="50" relative="1" as="geometry">
            <mxPoint x="603" y="620" as="sourcePoint" />
            <mxPoint x="813" y="710" as="targetPoint" />
            <Array as="points">
              <mxPoint x="573" y="620" />
              <mxPoint x="573" y="706" />
            </Array>
          </mxGeometry>
        </mxCell>
        <mxCell id="s2ZFkgCrrLTkxsjDdLg7-96" value="" style="endArrow=none;html=1;rounded=1;entryX=0;entryY=0.5;entryDx=0;entryDy=0;fontStyle=1;fontSize=20;fontColor=default;strokeWidth=4;exitX=0;exitY=0.5;exitDx=0;exitDy=0;endFill=0;" edge="1" target="s2ZFkgCrrLTkxsjDdLg7-92" parent="1" source="13">
          <mxGeometry width="50" height="50" relative="1" as="geometry">
            <mxPoint x="605" y="620.5" as="sourcePoint" />
            <mxPoint x="605" y="706" as="targetPoint" />
            <Array as="points">
              <mxPoint x="573" y="620" />
              <mxPoint x="573" y="796" />
            </Array>
          </mxGeometry>
        </mxCell>
        <mxCell id="s2ZFkgCrrLTkxsjDdLg7-97" value="" style="endArrow=none;html=1;rounded=1;entryX=0;entryY=0.5;entryDx=0;entryDy=0;fontStyle=1;fontSize=20;fontColor=default;strokeWidth=4;exitX=0;exitY=0.5;exitDx=0;exitDy=0;endFill=0;" edge="1" target="s2ZFkgCrrLTkxsjDdLg7-93" parent="1" source="13">
          <mxGeometry width="50" height="50" relative="1" as="geometry">
            <mxPoint x="603" y="620.5" as="sourcePoint" />
            <mxPoint x="601" y="800" as="targetPoint" />
            <Array as="points">
              <mxPoint x="571" y="620" />
              <mxPoint x="571" y="890" />
            </Array>
          </mxGeometry>
        </mxCell>
        <mxCell id="s2ZFkgCrrLTkxsjDdLg7-98" value="" style="endArrow=none;html=1;rounded=1;entryX=0;entryY=0.5;entryDx=0;entryDy=0;fontStyle=1;fontSize=20;fontColor=default;strokeWidth=4;exitX=0;exitY=0.5;exitDx=0;exitDy=0;endFill=0;" edge="1" target="s2ZFkgCrrLTkxsjDdLg7-94" parent="1" source="13">
          <mxGeometry width="50" height="50" relative="1" as="geometry">
            <mxPoint x="602" y="620.5" as="sourcePoint" />
            <mxPoint x="603" y="890" as="targetPoint" />
            <Array as="points">
              <mxPoint x="570" y="620" />
              <mxPoint x="573" y="980" />
            </Array>
          </mxGeometry>
        </mxCell>
        <mxCell id="s2ZFkgCrrLTkxsjDdLg7-100" value="Ngày giao dịch" style="rounded=1;fillColor=#10739E;strokeColor=none;shadow=1;gradientColor=none;fontStyle=1;fontColor=#FFFFFF;fontSize=20;" vertex="1" parent="1">
          <mxGeometry x="906.5" y="675" width="168" height="60" as="geometry" />
        </mxCell>
        <mxCell id="s2ZFkgCrrLTkxsjDdLg7-101" value="Số tiền" style="rounded=1;fillColor=#10739E;strokeColor=none;shadow=1;gradientColor=none;fontStyle=1;fontColor=#FFFFFF;fontSize=20;" vertex="1" parent="1">
          <mxGeometry x="905.5" y="765" width="170" height="60" as="geometry" />
        </mxCell>
        <mxCell id="s2ZFkgCrrLTkxsjDdLg7-102" value="Thẻ&#xa;danh mục" style="rounded=1;fillColor=#10739E;strokeColor=none;shadow=1;gradientColor=none;fontStyle=1;fontColor=#FFFFFF;fontSize=20;" vertex="1" parent="1">
          <mxGeometry x="906.5" y="855" width="172" height="60" as="geometry" />
        </mxCell>
        <mxCell id="s2ZFkgCrrLTkxsjDdLg7-103" value="Ghi chú" style="rounded=1;fillColor=#10739E;strokeColor=none;shadow=1;gradientColor=none;fontStyle=1;fontColor=#FFFFFF;fontSize=20;" vertex="1" parent="1">
          <mxGeometry x="906.5" y="945" width="172" height="60" as="geometry" />
        </mxCell>
        <mxCell id="s2ZFkgCrrLTkxsjDdLg7-109" value="" style="endArrow=none;html=1;entryX=0;entryY=0.5;entryDx=0;entryDy=0;exitX=0.5;exitY=1;exitDx=0;exitDy=0;strokeWidth=4;rounded=1;endFill=0;" edge="1" parent="1" source="18" target="s2ZFkgCrrLTkxsjDdLg7-103">
          <mxGeometry width="50" height="50" relative="1" as="geometry">
            <mxPoint x="762" y="965" as="sourcePoint" />
            <mxPoint x="812" y="915" as="targetPoint" />
            <Array as="points">
              <mxPoint x="822" y="975" />
            </Array>
          </mxGeometry>
        </mxCell>
        <mxCell id="s2ZFkgCrrLTkxsjDdLg7-110" value="" style="endArrow=none;html=1;rounded=1;entryX=0;entryY=0.5;entryDx=0;entryDy=0;exitX=0.5;exitY=1;exitDx=0;exitDy=0;strokeWidth=4;endFill=0;" edge="1" parent="1" source="18" target="s2ZFkgCrrLTkxsjDdLg7-102">
          <mxGeometry width="50" height="50" relative="1" as="geometry">
            <mxPoint x="782" y="805" as="sourcePoint" />
            <mxPoint x="832" y="755" as="targetPoint" />
            <Array as="points">
              <mxPoint x="822" y="885" />
            </Array>
          </mxGeometry>
        </mxCell>
        <mxCell id="s2ZFkgCrrLTkxsjDdLg7-111" value="" style="endArrow=none;html=1;rounded=1;entryX=0;entryY=0.5;entryDx=0;entryDy=0;exitX=0.5;exitY=1;exitDx=0;exitDy=0;strokeWidth=4;endFill=0;" edge="1" parent="1" source="18" target="s2ZFkgCrrLTkxsjDdLg7-101">
          <mxGeometry width="50" height="50" relative="1" as="geometry">
            <mxPoint x="782" y="805" as="sourcePoint" />
            <mxPoint x="832" y="755" as="targetPoint" />
            <Array as="points">
              <mxPoint x="822" y="795" />
            </Array>
          </mxGeometry>
        </mxCell>
        <mxCell id="s2ZFkgCrrLTkxsjDdLg7-112" value="" style="endArrow=none;html=1;rounded=1;entryX=0;entryY=0.5;entryDx=0;entryDy=0;strokeWidth=4;endFill=0;" edge="1" parent="1" target="s2ZFkgCrrLTkxsjDdLg7-100">
          <mxGeometry width="50" height="50" relative="1" as="geometry">
            <mxPoint x="822" y="635" as="sourcePoint" />
            <mxPoint x="832" y="755" as="targetPoint" />
            <Array as="points">
              <mxPoint x="822" y="705" />
            </Array>
          </mxGeometry>
        </mxCell>
        <mxCell id="s2ZFkgCrrLTkxsjDdLg7-113" value="" style="endArrow=none;html=1;rounded=1;exitX=0.5;exitY=1;exitDx=0;exitDy=0;entryX=1;entryY=0.5;entryDx=0;entryDy=0;strokeWidth=4;endFill=0;" edge="1" parent="1" source="s2ZFkgCrrLTkxsjDdLg7-64" target="s2ZFkgCrrLTkxsjDdLg7-100">
          <mxGeometry width="50" height="50" relative="1" as="geometry">
            <mxPoint x="872" y="855" as="sourcePoint" />
            <mxPoint x="922" y="805" as="targetPoint" />
            <Array as="points">
              <mxPoint x="1157" y="705" />
            </Array>
          </mxGeometry>
        </mxCell>
        <mxCell id="s2ZFkgCrrLTkxsjDdLg7-114" value="" style="endArrow=none;html=1;rounded=1;entryX=1.024;entryY=0.612;entryDx=0;entryDy=0;entryPerimeter=0;exitX=0.5;exitY=1;exitDx=0;exitDy=0;strokeWidth=4;endFill=0;" edge="1" parent="1" source="s2ZFkgCrrLTkxsjDdLg7-64" target="s2ZFkgCrrLTkxsjDdLg7-103">
          <mxGeometry width="50" height="50" relative="1" as="geometry">
            <mxPoint x="1272" y="895" as="sourcePoint" />
            <mxPoint x="922" y="805" as="targetPoint" />
            <Array as="points">
              <mxPoint x="1157" y="982" />
            </Array>
          </mxGeometry>
        </mxCell>
        <mxCell id="s2ZFkgCrrLTkxsjDdLg7-115" value="" style="endArrow=none;html=1;rounded=1;entryX=1;entryY=0.5;entryDx=0;entryDy=0;exitX=0.5;exitY=1;exitDx=0;exitDy=0;strokeWidth=4;endFill=0;" edge="1" parent="1" source="s2ZFkgCrrLTkxsjDdLg7-64" target="s2ZFkgCrrLTkxsjDdLg7-101">
          <mxGeometry width="50" height="50" relative="1" as="geometry">
            <mxPoint x="872" y="855" as="sourcePoint" />
            <mxPoint x="922" y="805" as="targetPoint" />
            <Array as="points">
              <mxPoint x="1157" y="795" />
            </Array>
          </mxGeometry>
        </mxCell>
        <mxCell id="s2ZFkgCrrLTkxsjDdLg7-116" value="" style="endArrow=none;html=1;rounded=0;entryX=1;entryY=0.5;entryDx=0;entryDy=0;exitX=0.5;exitY=1;exitDx=0;exitDy=0;strokeWidth=4;endFill=0;" edge="1" parent="1" source="s2ZFkgCrrLTkxsjDdLg7-64" target="s2ZFkgCrrLTkxsjDdLg7-102">
          <mxGeometry width="50" height="50" relative="1" as="geometry">
            <mxPoint x="872" y="855" as="sourcePoint" />
            <mxPoint x="922" y="805" as="targetPoint" />
            <Array as="points">
              <mxPoint x="1157" y="885" />
            </Array>
          </mxGeometry>
        </mxCell>
        <mxCell id="s2ZFkgCrrLTkxsjDdLg7-117" value="Quản lý chi tiêu" style="rounded=1;fillColor=#10739E;strokeColor=none;shadow=1;gradientColor=none;fontStyle=1;fontColor=#FFFFFF;fontSize=20;" vertex="1" parent="1">
          <mxGeometry x="1020" y="370" width="220" height="40" as="geometry" />
        </mxCell>
        <mxCell id="s2ZFkgCrrLTkxsjDdLg7-118" value="Sheet, Exel API" style="rounded=1;fillColor=#10739E;strokeColor=none;shadow=1;gradientColor=none;fontStyle=1;fontColor=#FFFFFF;fontSize=20;" vertex="1" parent="1">
          <mxGeometry x="440" y="480" width="220" height="40" as="geometry" />
        </mxCell>
        <mxCell id="s2ZFkgCrrLTkxsjDdLg7-119" value="" style="endArrow=none;html=1;rounded=1;entryX=0.5;entryY=1;entryDx=0;entryDy=0;exitX=1;exitY=0.5;exitDx=0;exitDy=0;strokeWidth=4;" edge="1" parent="1" source="3" target="s2ZFkgCrrLTkxsjDdLg7-117">
          <mxGeometry width="50" height="50" relative="1" as="geometry">
            <mxPoint x="1000" y="490" as="sourcePoint" />
            <mxPoint x="1050" y="440" as="targetPoint" />
            <Array as="points">
              <mxPoint x="1130" y="500" />
            </Array>
          </mxGeometry>
        </mxCell>
        <mxCell id="s2ZFkgCrrLTkxsjDdLg7-120" value="" style="endArrow=none;dashed=1;html=1;rounded=1;entryX=0;entryY=0.5;entryDx=0;entryDy=0;exitX=0.5;exitY=0;exitDx=0;exitDy=0;strokeWidth=4;" edge="1" parent="1" source="s2ZFkgCrrLTkxsjDdLg7-118" target="s2ZFkgCrrLTkxsjDdLg7-117">
          <mxGeometry width="50" height="50" relative="1" as="geometry">
            <mxPoint x="1000" y="490" as="sourcePoint" />
            <mxPoint x="1050" y="440" as="targetPoint" />
            <Array as="points">
              <mxPoint x="550" y="390" />
            </Array>
          </mxGeometry>
        </mxCell>
        <mxCell id="s2ZFkgCrrLTkxsjDdLg7-121" value="" style="endArrow=none;dashed=1;html=1;strokeWidth=4;rounded=1;entryX=0;entryY=0.5;entryDx=0;entryDy=0;exitX=0.25;exitY=0;exitDx=0;exitDy=0;" edge="1" parent="1" source="8" target="s2ZFkgCrrLTkxsjDdLg7-118">
          <mxGeometry width="50" height="50" relative="1" as="geometry">
            <mxPoint x="1010" y="780" as="sourcePoint" />
            <mxPoint x="1060" y="730" as="targetPoint" />
            <Array as="points">
              <mxPoint x="414" y="500" />
            </Array>
          </mxGeometry>
        </mxCell>
        <mxCell id="s2ZFkgCrrLTkxsjDdLg7-122" value="Đồ hoạ" style="rounded=1;fillColor=#10739E;strokeColor=none;shadow=1;gradientColor=none;fontStyle=1;fontColor=#FFFFFF;fontSize=20;" vertex="1" parent="1">
          <mxGeometry x="1240" y="480" width="220" height="40" as="geometry" />
        </mxCell>
        <mxCell id="s2ZFkgCrrLTkxsjDdLg7-123" value="" style="endArrow=none;html=1;rounded=1;entryX=0.5;entryY=1;entryDx=0;entryDy=0;exitX=0;exitY=0.5;exitDx=0;exitDy=0;strokeWidth=4;" edge="1" parent="1" source="s2ZFkgCrrLTkxsjDdLg7-122" target="s2ZFkgCrrLTkxsjDdLg7-117">
          <mxGeometry width="50" height="50" relative="1" as="geometry">
            <mxPoint x="1010" y="780" as="sourcePoint" />
            <mxPoint x="1060" y="730" as="targetPoint" />
            <Array as="points">
              <mxPoint x="1130" y="500" />
            </Array>
          </mxGeometry>
        </mxCell>
        <mxCell id="s2ZFkgCrrLTkxsjDdLg7-124" value="Tạo biểu đồ tròn&#xa;theo thời gian" style="rounded=1;fillColor=#10739E;strokeColor=none;shadow=1;gradientColor=none;fontStyle=1;fontColor=#FFFFFF;fontSize=20;" vertex="1" parent="1">
          <mxGeometry x="1240" y="560" width="220" height="60" as="geometry" />
        </mxCell>
        <mxCell id="s2ZFkgCrrLTkxsjDdLg7-128" value="Tạo biểu cột&#xa;theo thời gian" style="rounded=1;fillColor=#10739E;strokeColor=none;shadow=1;gradientColor=none;fontStyle=1;fontColor=#FFFFFF;fontSize=20;" vertex="1" parent="1">
          <mxGeometry x="1240" y="660" width="220" height="60" as="geometry" />
        </mxCell>
        <mxCell id="s2ZFkgCrrLTkxsjDdLg7-129" value="Lọc, hiển thị theo" style="rounded=1;fillColor=#10739E;strokeColor=none;shadow=1;gradientColor=none;fontStyle=1;fontColor=#FFFFFF;fontSize=20;" vertex="1" parent="1">
          <mxGeometry x="1240" y="760" width="220" height="60" as="geometry" />
        </mxCell>
        <mxCell id="s2ZFkgCrrLTkxsjDdLg7-131" value="Thời gian" style="rounded=1;fillColor=#10739E;strokeColor=none;shadow=1;gradientColor=none;fontStyle=1;fontColor=#FFFFFF;fontSize=20;" vertex="1" parent="1">
          <mxGeometry x="1280" y="855" width="150" height="37.5" as="geometry" />
        </mxCell>
        <mxCell id="s2ZFkgCrrLTkxsjDdLg7-132" value="Thẻ danh mục" style="rounded=1;fillColor=#10739E;strokeColor=none;shadow=1;gradientColor=none;fontStyle=1;fontColor=#FFFFFF;fontSize=20;" vertex="1" parent="1">
          <mxGeometry x="1280" y="915" width="150" height="37.5" as="geometry" />
        </mxCell>
        <mxCell id="s2ZFkgCrrLTkxsjDdLg7-133" value="" style="endArrow=none;html=1;rounded=1;entryX=0;entryY=1;entryDx=0;entryDy=0;exitX=0;exitY=0.5;exitDx=0;exitDy=0;strokeWidth=4;" edge="1" parent="1" source="s2ZFkgCrrLTkxsjDdLg7-131" target="s2ZFkgCrrLTkxsjDdLg7-129">
          <mxGeometry width="50" height="50" relative="1" as="geometry">
            <mxPoint x="980" y="780" as="sourcePoint" />
            <mxPoint x="1030" y="730" as="targetPoint" />
            <Array as="points">
              <mxPoint x="1240" y="874" />
            </Array>
          </mxGeometry>
        </mxCell>
        <mxCell id="s2ZFkgCrrLTkxsjDdLg7-134" value="" style="endArrow=none;html=1;rounded=1;entryX=0;entryY=1;entryDx=0;entryDy=0;exitX=0;exitY=0.5;exitDx=0;exitDy=0;strokeWidth=4;" edge="1" parent="1" source="s2ZFkgCrrLTkxsjDdLg7-132" target="s2ZFkgCrrLTkxsjDdLg7-129">
          <mxGeometry width="50" height="50" relative="1" as="geometry">
            <mxPoint x="980" y="780" as="sourcePoint" />
            <mxPoint x="1030" y="730" as="targetPoint" />
            <Array as="points">
              <mxPoint x="1240" y="934" />
            </Array>
          </mxGeometry>
        </mxCell>
      </root>
    </mxGraphModel>
  </diagram>
</mxfile>
